<svg xmlns="http://www.w3.org/2000/svg" viewBox="0 0 512 512">
  <rect width="512" height="512" rx="112" fill="#ff007f"/>
  <path fill="#ffffff" transform="translate(96, 96) scale(0.625)" d="M208 0c-29.9 0-54.7 20.5-61.8 48.2-.8 0-1.4-.2-2.2-.2-35.3 0-64 28.7-64 64 0 4.8 .6 9.5 1.7 14C52.5 138 32 166.6 32 200c0 12.6 3.2 24.3 8.3 34.9C16.3 248.7 0 274.3 0 304c0 33.3 20.4 61.9 49.4 73.9-.9 4.6-1.4 9.3-1.4 14.1 0 39.8 32.2 72 72 72 4.1 0 8.1-.5 12-1.2C149.9 489.1 177.3 512 208 512c30.2 0 57.1-22 68-54.1 10.9 32.1 37.8 54.1 68 54.1 30.7 0 58.1-22.9 69.9-54.2 3.9 .7 7.9 1.2 12 1.2 39.8 0 72-32.2 72-72 0-4.8-.5-9.5-1.4-14.1C526.4 365.9 544 337.3 544 304c0-29.7-16.3-55.3-40.3-69.1 5.2-10.6 8.3-22.3 8.3-34.9 0-33.4-20.5-62-49.7-74 1.1-4.5 1.7-9.2 1.7-14 0-35.3-28.7-64-64-64-.8 0-1.5 .2-2.2 .2C390.7 20.5 365.9 0 336 0c-29.7 0-54.5 20-61.7 47.1C267.5 44 259 42.7 250 42.7s-17.5 1.3-24.3 4.4C218.5 20 193.7 0 208 0z"/>
</svg>
